<svg id="レイヤー_1" data-name="レイヤー 1" xmlns="http://www.w3.org/2000/svg" width="32" height="32" viewBox="0 0 32 32">
<style>
  path {
    fill: #222;
  }
  @media (prefers-color-scheme: dark) {
    path {
      fill: #fff;
    }
  }
</style>
<path d="M10.8,13.25q2.64,5,5.52,10.22l1.09-2q.7-1.32,1.65-3c.62-1.13,1.29-2.37,2-3.69s1.44-2.67,2.17-4l2.19-4c.73-1.32,1.4-2.54,2-3.68h.49c.27,2.38.53,4.67.77,6.89s.48,4.4.73,6.54.5,4.26.75,6.35S30.7,26.94,31,29a9.73,9.73,0,0,0-1.19-.07H28.05a5.3,5.3,0,0,0-.88.07c-.28-3.29-.55-6.49-.82-9.58s-.62-6.26-1-9.47h-.07q-2.58,4.68-5.07,9.3t-4.74,9.68h-.34q-2.23-4.68-4.69-9.38T5.49,10H5.42c-.18,1.53-.37,3.2-.58,5s-.41,3.57-.58,5.31-.33,3.4-.45,4.94S3.62,28,3.62,29a10.68,10.68,0,0,0-1.31-.07A10.68,10.68,0,0,0,1,29c.32-2,.66-4.12,1-6.35s.69-4.47,1-6.72.63-4.48.9-6.67S4.43,5,4.63,3h1Q8.16,8.28,10.8,13.25Z"/></svg>